# AST/ASF file generated using VICON BodyLanguage
# -----------------------------------------------
:version 1.10
:name VICON
:units
  mass 1.0
  length 0.45
  angle deg
:documentation
   .ast/.asf automatically generated from VICON data using
   VICON BodyBuilder and BodyLanguage model FoxedUp or BRILLIANT.MOD
:root
   order TX TY TZ RX RY RZ
   axis XYZ
   position 0 0 0  
   orientation 0 0 0 
:bonedata
  begin
     id 1 
     name lhipjoint
     direction 0.623529 -0.717805 0.309788 
     length 2.23224 
     axis 0 0 0  XYZ
  end
  begin
     id 2 
     name lfemur
     direction 0.34202 -0.939693 0  
     length 7.11402  
     axis 0 0 20  XYZ
    dof rx ry rz
    limits (-160.0 20.0)
           (-70.0 70.0)
           (-60.0 70.0)
  end
  begin
     id 3 
     name ltibia
     direction 0.34202 -0.939693 0   
     length 6.78496   
     axis 0 0 20   XYZ
    dof rx
    limits (-10.0 170.0)
  end
  begin
     id 4 
     name lfoot
     direction 0.125078 -0.343648 0.930732   
     length 1.84054   
     axis -90 7.62852e-016 20   XYZ
    dof rx rz
    limits (-45.0 90.0)
           (-70.0 20.0)
  end
  begin
     id 5 
     name ltoes
     direction 1.53565e-011 -4.21893e-011 1   
     length 0.916474   
     axis -90 7.62852e-016 20   XYZ
    dof rx
    limits (-90.0 20.0)
  end
  begin
     id 6 
     name rhipjoint
     direction -0.564688 -0.757748 0.327026   
     length 2.11457  
     axis 0 0 0  XYZ 
  end
  begin
     id 7 
     name rfemur
     direction -0.34202 -0.939693 0   
     length 7.14609   
     axis 0 0 -20   XYZ
    dof rx ry rz
    limits (-160.0 20.0)
           (-70.0 70.0)
           (-70.0 60.0)
  end
  begin
     id 8 
     name rtibia
     direction -0.34202 -0.939693 0   
     length 6.78101   
     axis 0 0 -20   XYZ
    dof rx
    limits (-10.0 170.0)
 end
 begin
     id 9 
     name rfoot
     direction -0.0992671 -0.272734 0.956955   
     length 1.96168  
     axis -90 -7.62852e-016 -20   XYZ
    dof rx rz
    limits (-45.0 90.0)
           (-20.0 70.0)
  end
  begin
     id 10 
     name rtoes
     direction -1.5356e-011 -4.21891e-011 1   
     length 0.982933   
     axis -90 -7.62852e-016 -20   XYZ
    dof rx
    limits (-90.0 20.0)
  end
  begin
     id 11 
     name lowerback
     direction -0.00596953 0.998668 0.0512524   
     length 1.87557   
     axis 0 0 0   XYZ
    dof rx ry rz
    limits (-20.0 45.0)
           (-30.0 30.0)
           (-30.0 30.0)
  end
  begin
     id 12 
     name upperback
     direction 0.00584879 0.999652 0.0257308   
     length 1.87883   
     axis 0 0 0   XYZ
    dof rx ry rz
    limits (-20.0 45.0)
           (-30.0 30.0)
           (-30.0 30.0)
  end
  begin
     id 13 
     name thorax
     direction 0.010104 0.999947 0.00178881   
     length 1.87779   
     axis 0 0 0   XYZ
    dof rx ry rz
    limits (-20.0 45.0)
           (-30.0 30.0)
           (-30.0 30.0)
  end
  begin
     id 14 
     name lowerneck
     direction 0.0120771 0.995934 -0.0892773   
     length 1.40897   
     axis 0 0 0   XYZ
    dof rx ry rz
    limits (-20.0 45.0)
           (-30.0 30.0)
           (-30.0 30.0)
  end
  begin
     id 15 
     name upperneck
     direction -0.030568 0.999465 -0.0116366   
     length 1.38661   
     axis 0 0 0   XYZ
    dof rx ry rz
    limits (-20.0 45.0)
           (-30.0 30.0)
           (-30.0 30.0)
  end
  begin
     id 16
     name head
     direction -0.0170715 0.999854 -0.00104426  
     length 1.47052  
     axis 0 0 0   XYZ
    dof rx ry rz
    limits (-20.0 45.0)
           (-30.0 30.0)
           (-30.0 30.0)
  end
  begin
     id 17 
     name lclavicle
     direction 0.977763 0.206143 0.038532  
     length 3.02424  
     axis 0 0 0   XYZ
    dof ry rz
    limits (-20.0 10.0)
           (0.0 20.0)
  end
  begin
     id 18 
     name lhumerus
     direction 1 -4.48965e-011 -2.62654e-027   
     length 4.68382   
     axis 180 -30 -90   XYZ
    dof rx ry rz
    limits (-60.0 90.0)
           (-90.0 90.0)
           (-90.0 90.0)
  end
  begin
     id 19
     name lradius
     direction 1 -4.48973e-011 -1.54954e-027   
     length 2.98124   
     axis 180 -30 -90   XYZ
    dof rx
    limits (-10.0 170.0)
  end
  begin
     id 20
     name lwrist
     direction 1 -4.48959e-011 7.20928e-028   
     length 1.49062   
     axis -5.52449e-016 90 90   XYZ
    dof ry
    limits (-180.0 0.0)
 end
  begin
     id 21 
     name lhand
     direction 1 -4.48971e-011 1.44186e-027   
     length 0.707595   
     axis -9.20027e-016 90 90   XYZ
    dof rx rz
    limits (-90.0 90.0)
           (-45.0 45.0)
  end
  begin
     id 22 
     name lfingers
     direction 1 -4.48985e-011 2.88371e-027   
     length 0.570481   
     axis -1.84005e-015 90 90   XYZ
    dof rx
    limits (0.0 90.0)
  end
  begin
     id 23
     name lthumb
     direction 0.707107 -6.34929e-011 0.707107   
     length 0.819101   
     axis -90 45 2.85299e-015   XYZ
    dof rx rz
    limits (-45.0 45.0)
           (-45.0 45.0)
  end
  begin
     id 24 
     name rclavicle
     direction -0.958661 0.284411 -0.00895327   
     length 3.11921  
     axis 0 0 0   XYZ 
    dof ry rz
    limits (-10.0 20.0)
           (-20.0 0.0)
  end
  begin
     id 25 
     name rhumerus
     direction -1 -4.48963e-011 -4.22193e-027  
     length 4.75876   
     axis 180 30 90   XYZ
    dof rx ry rz
    limits (-90.0 60.0)
           (-90.0 90.0)
           (-90.0 90.0)
  end
  begin
     id 26 
     name rradius
     direction -1 -4.48968e-011 -1.07616e-027   
     length 2.93293   
     axis 180 30 90   XYZ
    dof rx
    limits (-10.0 170.0)
  end
  begin
     id 27 
     name rwrist
     direction -1 -4.48965e-011 7.20928e-028   
     length 1.46647   
     axis -5.52449e-016 -90 -90   XYZ
    dof ry
    limits (-180.0 0.0)
  end
  begin
     id 28
     name rhand
     direction -1 -4.48971e-011 1.44186e-027   
     length 0.831748   
     axis -9.20027e-016 -90 -90   XYZ
    dof rx rz
    limits (-90.0 90.0)
           (-45.0 45.0)
  end
  begin
     id 29
     name rfingers
     direction -1 -4.48961e-011 2.88371e-027   
     length 0.670577   
     axis -1.84005e-015 -90 -90   XYZ
    dof rx
    limits (0.0 90.0)
  end
  begin
     id 30
     name rthumb
     direction -0.707107 -6.34929e-011 0.707107   
     length 0.962818   
     axis -90 -45 -2.85299e-015   XYZ
    dof rx rz
    limits (-45.0 45.0)
           (-45.0 45.0)
  end
:hierarchy
  begin
    root lhipjoint rhipjoint lowerback
    lhipjoint lfemur
    lfemur ltibia
    ltibia lfoot
    lfoot ltoes
    rhipjoint rfemur
    rfemur rtibia
    rtibia rfoot
    rfoot rtoes
    lowerback upperback
    upperback thorax
    thorax lowerneck lclavicle rclavicle
    lowerneck upperneck
    upperneck head
    lclavicle lhumerus
    lhumerus lradius
    lradius lwrist
    lwrist lhand lthumb
    lhand lfingers
    rclavicle rhumerus
    rhumerus rradius
    rradius rwrist
    rwrist rhand rthumb
    rhand rfingers
  end

#!OML:ASF E:\id_vita\Project 1\Capture day 1\Session 1\Female.ASF
:FULLY-SPECIFIED
:DEGREES
103
root -21.3958 15.9808 -0.116787 266.806 88.9426 246.256
lowerback -14.9351 -1.39434 -3.16092
upperback -4.45206 -1.2175 1.12361
thorax 3.7452 -0.514664 2.75777
lowerneck -0.494462 0.0592321 -2.69737
upperneck 19.2634 0.0157077 4.64233
head 5.88404 0.353614 1.94574
rclavicle 1.30949e-014 -1.49089e-015
rhumerus -55.4371 -39.0529 -52.7579
rradius 15.5025
rwrist 34.299
rhand -13.3246 7.79938
rfingers 7.12502
rthumb 12.7803 -21.7894
lclavicle 1.30949e-014 -1.49089e-015
lhumerus -31.7477 26.2302 78.7571
lradius 21.5671
lwrist -27.9923
lhand -7.42973 21.1409
lfingers 7.12502
lthumb 18.4575 50.2852
rfemur -44.9763 7.77366 25.8422
rtibia 32.3556
rfoot -6.15011 -7.67671
rtoes 11.219
lfemur -7.95558 1.73245 -20.2148
ltibia 39.0728
lfoot 6.13867 -17.6018
ltoes 0.0221409
104
root -21.2486 15.9924 -0.100866 267.201 88.7705 246.714
lowerback -15.0878 -1.38173 -2.9857
upperback -4.4629 -1.21993 1.13309
thorax 3.81311 -0.515196 2.66654
lowerneck -0.442892 0.096423 -2.76619
upperneck 19.1793 0.0697113 4.64147
head 5.84648 0.372916 1.95834
rclavicle 3.26752e-015 1.799e-014
rhumerus -53.7089 -37.7589 -55.3498
rradius 15.9335
rwrist 32.2305
rhand -12.8699 7.1418
rfingers 7.12502
rthumb 13.2186 -22.4191
lclavicle 3.26752e-015 1.799e-014
lhumerus -32.729 26.9241 77.8859
lradius 21.3347
lwrist -27.9862
lhand -7.18845 20.8127
lfingers 7.12502
lthumb 18.6896 49.9349
rfemur -44.2667 7.52585 26.3179
rtibia 32.3578
rfoot -6.93065 -7.66977
rtoes 11.5211
lfemur -9.07323 2.55246 -19.7188
ltibia 41.5149
lfoot 7.70306 -18.3241
ltoes -3.53617
105
root -21.1053 16.0065 -0.0868113 269.648 88.6711 249.248
lowerback -15.0993 -1.33819 -2.86924
upperback -4.47469 -1.17905 1.14269
thorax 3.80218 -0.49397 2.61806
lowerneck -0.488309 0.0919243 -2.75666
upperneck 19.1068 0.0879777 4.47052
head 5.83171 0.368553 1.90243
rclavicle -6.08778e-015 -3.06128e-014
rhumerus -52.2255 -36.6136 -57.5302
rradius 16.3143
rwrist 30.6873
rhand -12.7574 6.53822
rfingers 7.12502
rthumb 13.327 -23.0156
lclavicle -6.08778e-015 -3.06128e-014
lhumerus -33.7085 27.8918 76.9602
lradius 21.0251
lwrist -28.2161
lhand -7.184 20.4952
lfingers 7.12502
lthumb 18.6939 49.617
rfemur -43.5327 7.1665 26.7677
rtibia 32.391
rfoot -7.37928 -7.70744
rtoes 12.8568
lfemur -10.2398 3.25114 -19.3413
ltibia 43.9878
lfoot 9.5719 -17.8819
ltoes -3.3656
106
root -20.9637 16.0191 -0.0735634 275.967 88.5878 255.642
lowerback -15.0715 -1.22507 -2.79796
upperback -4.56929 -1.03712 1.15977
thorax 3.67716 -0.418186 2.62226
lowerneck -0.301526 0.0471473 -2.79662
upperneck 19.0067 0.0409013 4.40324
head 5.7704 0.336733 1.88349
rclavicle -2.31149e-014 8.94531e-015
rhumerus -51.3696 -35.8173 -58.8838
rradius 16.6625
rwrist 29.7508
rhand -12.6533 6.56226
rfingers 7.12502
rthumb 13.4274 -22.985
lclavicle -2.31149e-014 8.94531e-015
lhumerus -34.8385 28.3603 76.2481
lradius 20.9044
lwrist -28.0742
lhand -7.42359 20.6264
lfingers 7.12502
lthumb 18.4634 49.7702
rfemur -42.839 6.73515 27.2591
rtibia 32.4554
rfoot -8.28931 -7.46814
rtoes 12.1778
lfemur -11.4843 4.03522 -18.9974
ltibia 46.5322
lfoot 11.1885 -17.0667
ltoes -2.47518
107
root -20.8282 16.0269 -0.0619683 283.094 88.4451 262.852
lowerback -14.9826 -1.06282 -2.52172
upperback -4.63958 -0.859362 1.07373
thorax 3.53881 -0.326114 2.40773
lowerneck -0.251602 0.0407359 -2.98703
upperneck 18.9548 -0.00313128 4.69676
head 5.74556 0.321748 2.00566
rclavicle 2.31087e-015 1.17283e-014
rhumerus -50.8609 -35.8718 -59.4619
rradius 16.7372
rwrist 30.0051
rhand -12.3636 7.36408
rfingers 7.12502
rthumb 13.7066 -22.1645
lclavicle 2.31087e-015 1.17283e-014
lhumerus -35.8755 28.4211 75.5683
lradius 20.8472
lwrist -27.6335
lhand -8.03577 20.701
lfingers 7.12502
lthumb 17.8744 49.8996
rfemur -42.1916 6.37493 27.757
rtibia 32.534
rfoot -9.19656 -7.36235
rtoes 10.4753
lfemur -12.8055 4.90988 -18.6419
ltibia 49.1416
lfoot 12.4123 -16.0816
ltoes -1.91231
108
root -20.6977 16.0332 -0.0495409 287.51 88.2638 267.349
lowerback -14.9225 -0.76287 -2.28422
upperback -4.52865 -0.500859 0.981627
thorax 3.59914 -0.153447 2.24001
lowerneck -0.814881 -0.122612 -3.21515
upperneck 18.9898 -0.268937 5.03143
head 5.86275 0.201529 2.13948
rclavicle 3.926e-015 -8.54774e-015
rhumerus -50.0974 -36.5027 -59.8584
rradius 16.6983
rwrist 30.335
rhand -12.1553 7.68208
rfingers 7.12502
rthumb 13.9073 -21.8329
lclavicle 3.926e-015 -8.54774e-015
lhumerus -36.4713 28.8526 74.9566
lradius 20.5171
lwrist -27.9107
lhand -8.49547 21.0725
lfingers 7.12502
lthumb 17.432 50.3108
rfemur -41.5475 6.08425 28.2318
rtibia 32.5931
rfoot -9.58566 -7.04571
rtoes 11.6272
lfemur -14.2309 5.80513 -18.2523
ltibia 51.8081
lfoot 13.0781 -15.0812
ltoes -1.53596
109
root -20.5681 16.0393 -0.0367658 292.042 88.1191 271.966
lowerback -15.0844 -0.343489 -2.28549
upperback -4.01704 0.0336319 1.01124
thorax 4.1954 0.0868088 2.37022
lowerneck -2.58515 -0.452779 -3.53832
upperneck 19.2256 -0.726886 5.16979
head 6.2649 -0.0262605 2.21962
rclavicle 2.80783e-015 1.88845e-015
rhumerus -48.0889 -36.882 -61.2524
rradius 16.8292
rwrist 29.2225
rhand -12.1072 7.28243
rfingers 7.12502
rthumb 13.9537 -22.2293
lclavicle 2.80783e-015 1.88845e-015
lhumerus -36.1939 29.7984 74.8814
lradius 19.9841
lwrist -28.8336
lhand -8.50179 21.5306
lfingers 7.12502
lthumb 17.426 50.7695
rfemur -40.9072 5.82971 28.6473
rtibia 32.6187
rfoot -10.2409 -6.90652
rtoes 9.99607
lfemur -15.7191 6.69291 -17.949
ltibia 54.491
lfoot 12.756 -13.9245
ltoes -1.97196
